<svg version="1" xmlns="http://www.w3.org/2000/svg" width="20" height="20" fill="#ffffff" viewBox="0 0 840.000000 840.000000"><path d="M605.7 100.5c-.1.2-7.4.5-16.2.9-8.8.4-17.8.9-20 1.1-2.2.2-6.9.7-10.5 1-7 .6-14 1.4-18 2-1.4.2-4.5.7-7 1-5 .7-15.2 2.3-19 3-1.4.2-3.6.6-5 .9-6.5 1.1-14.7 2.7-16.7 3.1-3.9.9-6.7 1.4-9.8 2.1-5.1 1-38.6 9.4-43.5 10.9-2.5.7-10.5 3.2-17.9 5.5l-13.3 4.2-8.2-4.1c-10.9-5.4-33-10.4-38.5-8.6-2.6.8-6.5 9.4-9.1 20-1.2 4.9-2.4 9.2-2.5 9.3-.2.2-1.3-1.4-2.5-3.7-2.5-4.9-4-5.2-4.1-.9-.5 11.7.1 20.7 2.5 33.6l.7 3.4-3.8-3.6c-2.1-1.9-3.9-3.3-4.1-3.1-.2.2 0 2.6.6 5.2s1.4 6.5 1.7 8.7l.6 3.8-4.7-.7c-6.6-.9-14.4-5.1-30.5-16-14.7-10-24.3-15-32.3-16.7-3.3-.7-11.5-.9-23.7-.4-22.1.8-22.6.6-36.5-10-4.9-3.7-11.4-8.7-14.6-11.1-3.1-2.4-6.1-4.3-6.7-4.3-.6 0-1.1-.3-1.1-.8 0-.7-15.1-8.6-22-11.5-12.2-5.1-33.4-10.3-49.7-12.2-2.7-.3-4.9 1-11 6.1-1.2 1.1-5.5 4.3-9.6 7.3-10.5 7.6-16.5 18-10.4 18.1 4.5.1 10.5 1.3 23.6 4.6 21.9 5.6 40 13.6 64.3 28.5 17.2 10.6 17.6 10.8 22.3 10.9 5 .2 6.5-.2 14-3.5 3.3-1.5 7.8-3.5 10-4.5 16.1-7.1 37.3-5.6 56.1 3.8 7.8 3.9 13.6 7.1 15.4 8.7 3.8 3.2 20 13.4 24.3 15.3 5.6 2.5 14.2 4.2 20.8 4.2 4.5 0 4.8.2 5.4 3.1.9 3.8.5 4.1-6.9 6.8-11.5 4.2-22.5 3.6-34-2-6.5-3.2-10.1-5.9-23-17.1-12.8-11.1-20.2-14.2-33.1-13.9-15.5.3-26.7 4.7-38.1 15-9 8.1-14.5 11.1-21.7 11.8-8.4.8-15.3-2.1-34.1-14.2-28.2-18-41.6-23.6-68.1-28.4-9.1-1.7-14.1-2-29-1.7-9.9.2-19 .6-20.2.9-1.1.3-4.1.8-6.5 1.2l-4.3.7-12.8 18.9C6.6 203.6 1 212.3 1.2 212.5c.1.1 9.7.6 21.3.9 11.6.4 22.8.9 25 1.1 20.5 2.1 22.1 2.3 33.9 4.5 14.6 2.7 14.9 2.8 23.9 5.6 4.5 1.4 15 6.1 23.2 10.4 17 8.8 23.3 11 32.5 11.1 12.5.1 23.2-3.6 43.2-15.2 15-8.6 24.7-11.3 35.2-9.7 10.4 1.5 18.2 4.9 44.1 19.1 18.7 10.2 22.8 11.6 35.1 11.9 7.8.2 16.6-.8 25.2-3l7-1.8 1.1 4c.7 2.3 1.3 5.4 1.5 7.1 2.9 25.1 13.9 47.7 30.8 63.6l5.9 5.7-3.8-.5c-10.2-1.2-24.9-3.6-35-5.6l-11.2-2.3 1.5 3.5c2 4.9 7.2 12.8 11.3 17.4l3.4 3.8-2.9-.5c-1.6-.3-8.5-1.2-15.4-2.1-6.9-.9-13.8-1.8-15.5-2-18.1-2.6-32.4-3.1-65-2.5-29.5.5-54.9 5.9-76.1 16-7.9 3.8-18.4 11.2-18.4 12.9 0 .5 2.5 1.2 5.6 1.6 12.6 1.5 27.9 6.9 47.8 16.7 21 10.4 26.7 16.2 55.1 55.8 21.1 29.3 33.5 43.3 47 52.5 30 20.6 83 67.7 112.5 100.1 43.5 47.7 76.5 96.3 92.6 136.3 2.3 5.8 4.6 10.6 5.1 10.6.4 0 6-5.6 12.3-12.5 6.3-6.9 21-22 32.5-33.5 21.1-21 28.7-28.1 45.5-42.3 8.1-6.9 18.5-14.6 33.7-25.2 20.1-14 35.3-25.9 43.9-34.4 6-6 16.4-18.7 16.4-20.1 0-.4 3.3-4 7.4-8.1 4.1-4.1 10.7-11.4 14.5-16.2 3.9-4.9 8.1-9.3 9.3-9.9 10.5-5 24.2-24.6 30-43.3 2-6.6 2.3-9.5 2.3-24.5 0-9.4-.4-19.3-.8-22-.5-2.8-1-11.5-1.2-19.5-.4-11.6-.1-16.4 1.4-23.7 1.8-8.6 6.7-21.6 11.6-30.8 5.3-10 9.9-18.1 10.8-19.3.6-.8.6-1.2-.2-1.2-2.2 0-7.2 3.1-10.2 6.3l-2.9 3.2.6-5c.3-2.8.8-5.9 1-7 .2-1.1.7-4 1-6.5.3-2.5.8-4.8 1-5.1.2-.3.6-2.1.9-4 .9-5.4 5.5-20.1 7.6-24.2 1.1-2.1 1.5-3.7.9-3.7-2.2 0-15.2 7.9-16.5 10.1-.4.5-1.3.9-2.1.9s-1.3-.3-1.1-.8c.3-.4.8-3 1.1-5.7 1.4-10 4.8-21.9 8.3-28.8 1.8-3.5 1-3.5-9.7-.1-4.5 1.4-8.4 2.4-8.6 2.1-.2-.2.2-2.3 1-4.8.8-2.4 3.3-10.5 5.6-17.9 9.4-30.6 14.4-45.6 15.4-46.9.9-1.2 14-11.8 30.5-24.9 6.2-4.8 11.5-9.6 14.7-13.1 2.9-3.1 3.1-3.7 2.1-6.5-2.7-8-12.8-18.2-26.6-27.1-16.2-10.5-47.6-23.2-70.1-28.5-1.9-.5-7.3-1.8-12-2.9-4.7-1.1-9.8-2.2-11.5-2.5-1.6-.3-4.1-.8-5.5-1.1-3.6-.7-6.8-1.2-15.7-2.5-12.1-1.7-13.4-1.9-20.3-2.5-3.6-.3-7.8-.8-9.5-1-8.8-1.2-60.7-2.8-61.8-2z"/></svg>